# xmcd
#
# Track frame offsets: 
#        150
#        18897
#        41140
#        63917
#        84902
#        105267
#        126060
#        147667
#        167242
#        188209
#
# Disc length: 2797 seconds
#
# Revision: 2
# Processed by: cddbd v1.4PL0 Copyright (c) Steve Scherf et al.
# Submitted via: ExactAudioCopy v0.90b4
#
DISCID=7f0aeb0a
DTITLE=Alex To - Perfect Don't Go
DYEAR=1900
DGENRE=
TTITLE0=Burning Happiness Badly
TTITLE1=Don't Go
TTITLE2=Perfect
TTITLE3=Stupid Bird
TTITLE4=You Are Still My Baby
TTITLE5=Stupid Girl
TTITLE6=My Angel And I Fell In Love
TTITLE7=Think Of You, Missing You
TTITLE8=Scare To Listen To Love Song
TTITLE9=Buring Happiness Badly
EXTD=
EXTT0=
EXTT1=
EXTT2=
EXTT3=
EXTT4=
EXTT5=
EXTT6=
EXTT7=
EXTT8=
EXTT9=
PLAYORDER=
